<svg width="2179" height="1433" viewBox="0 0 2179 1433" fill="none" xmlns="http://www.w3.org/2000/svg">
<g id="landscape-1844227 1" clip-path="url(#clip0)">
<path id="Sky" d="M2179 0H0V1067.73H2179V0Z" fill="url(#paint0_linear)"/>
<path id="Sun" d="M1966.33 345.138C2050.96 345.138 2119.57 286.746 2119.57 214.716C2119.57 142.686 2050.96 84.2941 1966.33 84.2941C1881.69 84.2941 1813.08 142.686 1813.08 214.716C1813.08 286.746 1881.69 345.138 1966.33 345.138Z" fill="url(#paint1_radial)"/>
<path id="Cloud 3" opacity="0.68" d="M211.847 592.4C165.901 583.268 136.463 544.868 145.267 506.233C154.071 466.662 200.292 439.734 247.614 447.227C244.862 421.705 265.222 398.524 294.385 393.373C323.273 388.221 352.437 402.27 362.066 426.154C360.415 419.129 352.987 383.538 379.674 348.884C405.536 314.932 445.429 306.034 453.958 304.395C459.186 280.278 482.021 262.014 508.984 259.907C539.798 257.331 569.786 276.297 576.114 304.395C620.96 290.581 670.483 302.288 698.821 332.493C722.757 358.25 727.709 393.607 712.577 424.983C731.01 399.226 766.227 385.646 800.617 391.031C836.109 396.651 864.172 421.236 869.399 451.91C871.05 451.208 907.917 434.115 943.683 451.91C968.995 464.554 983.301 489.608 979.449 515.131C992.931 499.443 1015.77 494.291 1031.72 501.082C1047.96 508.106 1054.83 529.882 1049.88 545.102C1030.07 604.108 819.876 611.132 819.876 611.132C819.876 611.132 686.715 616.518 547.501 615.815C415.991 615.113 350.236 609.259 321.898 606.449C276.502 602 238.534 596.615 211.847 592.4Z" fill="url(#paint2_linear)"/>
<path id="Cloud 2" opacity="0.82" d="M1301.62 439.032C1271.63 434.583 1252.65 415.149 1258.15 395.948C1263.93 376.045 1293.92 362.699 1325.01 366.445C1323.36 353.801 1336.56 342.094 1355.55 339.518C1374.26 336.942 1393.51 343.967 1399.84 355.908C1398.74 352.396 1394.06 334.601 1411.12 317.274C1427.91 300.415 1454.04 295.966 1459.54 295.029C1462.85 282.854 1477.98 273.956 1495.31 272.785C1515.4 271.614 1534.93 280.98 1539.06 295.029C1568.22 288.239 1600.68 293.859 1619.12 309.078C1634.8 321.957 1638.1 339.752 1628.2 355.206C1640.03 342.328 1663.14 335.537 1685.7 338.347C1708.81 341.157 1726.97 353.333 1730.54 368.787C1731.64 368.318 1755.58 359.889 1778.97 368.787C1795.47 375.109 1804.83 387.519 1802.35 400.397C1811.16 392.436 1826.01 389.86 1836.47 393.373C1847.2 396.885 1851.6 407.656 1848.3 415.383C1835.37 444.886 1698.35 448.398 1698.35 448.398C1698.35 448.398 1611.41 451.208 1520.62 450.739C1434.78 450.271 1391.86 447.461 1373.43 446.056C1343.72 443.949 1318.96 441.139 1301.62 439.032Z" fill="url(#paint3_linear)"/>
<path id="Cloud 1" opacity="0.92" d="M1395.72 339.986C1416.07 336.006 1429.28 319.381 1425.43 302.522C1421.58 285.195 1400.94 273.722 1379.76 277C1380.86 265.995 1371.78 255.926 1358.85 253.585C1345.92 251.477 1332.99 257.565 1328.58 267.868C1329.41 264.824 1332.71 249.37 1320.88 234.384C1309.33 219.633 1291.44 215.887 1287.87 214.95C1285.67 204.413 1275.21 196.686 1263.38 195.516C1249.62 194.345 1236.14 202.774 1233.39 214.95C1213.31 208.862 1191.3 214.013 1178.64 227.126C1167.91 238.365 1165.71 253.819 1172.59 267.4C1164.33 256.16 1148.65 250.307 1133.24 252.648C1117.29 254.99 1104.91 265.761 1102.43 279.107C1101.61 278.873 1085.37 271.38 1069.42 279.107C1058.14 284.493 1051.81 295.498 1053.46 306.503C1047.41 299.712 1037.23 297.371 1030.07 300.415C1022.92 303.459 1019.62 312.825 1022.09 319.615C1030.9 345.138 1124.72 348.182 1124.72 348.182C1124.72 348.182 1184.14 350.523 1246.32 350.289C1304.92 350.055 1334.36 347.479 1347.02 346.308C1366.83 344.201 1383.61 341.859 1395.72 339.986Z" fill="url(#paint4_linear)"/>
<path id="Cloud 3_2" opacity="0.79" d="M504.857 889.537C483.672 886.259 469.916 871.976 474.042 857.693C478.169 843.175 499.629 833.107 521.639 835.917C520.264 826.551 529.893 817.887 543.374 816.014C556.855 814.141 570.337 819.292 574.739 828.19C573.913 825.614 570.612 812.502 582.717 799.623C594.823 787.213 613.256 783.935 617.108 783.233C619.584 774.335 630.039 767.545 642.695 766.842C657.001 765.906 670.758 772.93 673.784 783.233C694.694 778.082 717.529 782.53 730.735 793.535C741.74 802.901 744.216 816.014 737.063 827.487C745.592 817.887 761.825 812.97 777.782 815.077C794.289 817.185 807.22 826.082 809.696 837.556C810.522 837.322 827.58 831 844.087 837.556C855.918 842.239 862.521 851.371 860.595 860.737C866.923 854.883 877.378 853.01 884.806 855.585C892.234 858.161 895.536 866.122 893.06 871.742C883.981 893.518 786.586 896.093 786.586 896.093C786.586 896.093 724.683 898.201 660.303 897.732C599.225 897.498 568.686 895.391 555.755 894.22C534.845 893.049 517.237 890.942 504.857 889.537Z" fill="url(#paint5_linear)"/>
<path id="Cloud 6" opacity="0.79" d="M33.0152 824.678C11.8305 821.399 -1.92584 807.116 2.20105 792.833C6.32794 778.316 27.7878 768.247 49.7979 771.057C48.4223 761.691 58.0517 753.027 71.5329 751.154C85.0141 749.281 98.4952 754.432 102.897 763.33C102.072 760.754 98.7704 747.642 110.876 734.764C122.981 722.354 141.415 719.076 145.267 718.373C147.743 709.475 158.198 702.685 170.853 701.983C185.16 701.046 198.916 708.071 201.943 718.373C222.852 713.222 245.688 717.671 258.894 728.676C269.899 738.042 272.375 751.154 265.222 762.628C273.751 753.027 289.983 748.11 305.94 750.218C322.448 752.325 335.379 761.223 337.855 772.696C338.68 772.462 355.738 766.14 372.246 772.696C384.076 777.379 390.679 786.511 388.753 795.877C395.081 790.023 405.536 788.15 412.965 790.726C420.393 793.301 423.694 801.262 421.218 806.882C412.139 828.658 314.744 831.234 314.744 831.234C314.744 831.234 252.841 833.341 188.462 832.873C127.383 832.639 96.8445 830.531 83.9135 829.361C63.004 828.19 45.3959 826.317 33.0152 824.678Z" fill="url(#paint6_linear)"/>
<path id="Cloud 4" opacity="0.79" d="M1467.8 799.155C1446.61 795.877 1432.86 781.594 1436.98 767.311C1441.11 752.793 1462.57 742.725 1484.58 745.535C1483.21 736.169 1492.84 727.505 1506.32 725.632C1519.8 723.759 1533.28 728.91 1537.68 737.808C1536.86 735.232 1533.55 722.12 1545.66 709.241C1557.76 696.831 1576.2 693.553 1580.05 692.851C1582.53 683.953 1592.98 677.163 1605.64 676.46C1619.94 675.524 1633.7 682.548 1636.73 692.851C1657.64 687.699 1680.47 692.148 1693.68 703.153C1704.68 712.519 1707.16 725.632 1700.01 737.105C1708.53 727.505 1724.77 722.588 1740.72 724.695C1757.23 726.803 1770.16 735.7 1772.64 747.174C1773.46 746.94 1790.52 740.617 1807.03 747.174C1818.86 751.857 1825.46 760.989 1823.54 770.355C1829.86 764.501 1840.32 762.628 1847.75 765.203C1855.18 767.779 1858.48 775.74 1856 781.36C1846.92 803.136 1749.53 805.711 1749.53 805.711C1749.53 805.711 1687.62 807.819 1623.25 807.35C1562.17 807.116 1531.63 805.009 1518.7 803.838C1497.79 802.667 1480.45 800.56 1467.8 799.155Z" fill="url(#paint7_linear)"/>
<path id="Cloud 5" opacity="0.79" d="M1202.3 853.01C1170.94 848.561 1150.85 829.126 1156.63 809.926C1162.68 790.023 1194.32 776.677 1226.79 780.423C1224.86 767.779 1238.89 756.071 1258.7 753.496C1278.51 750.92 1298.32 757.945 1305.2 769.886C1304.1 766.374 1299.15 748.579 1317.3 731.251C1334.91 714.393 1362.43 709.944 1368.2 709.007C1371.78 696.831 1387.46 687.934 1405.9 686.763C1427.08 685.592 1447.44 694.958 1451.84 709.007C1482.66 702.217 1516.5 707.836 1535.75 723.056C1551.99 735.934 1555.56 753.73 1545.11 769.418C1557.76 756.54 1581.7 749.749 1605.36 752.559C1629.85 755.369 1648.83 767.545 1652.41 782.999C1653.51 782.53 1678.82 774.101 1703.31 782.999C1720.64 789.321 1730.27 801.731 1727.79 814.609C1737.15 806.648 1752.83 804.072 1763.56 807.584C1774.84 811.097 1779.52 821.868 1775.94 829.595C1762.46 859.097 1618.84 862.61 1618.57 862.61C1618.57 862.61 1527.5 865.42 1432.31 864.951C1342.34 864.483 1297.22 861.673 1277.96 860.268C1246.6 857.927 1220.74 855.117 1202.3 853.01Z" fill="url(#paint8_linear)"/>
<g id="Mountain">
<path id="Vector" d="M2179 888.835C2169.1 878.766 2159.19 868.932 2149.56 858.863C2149.84 861.205 2152.31 887.43 2135.53 905.928C2120.4 922.552 2101.41 919.742 2098.66 919.274C2092.89 919.742 2058.22 922.318 2033.46 892.347C2023.83 880.639 2018.88 867.761 2016.4 858.863L1971 889.069C1931.39 845.049 1878.84 794.706 1812.53 748.11C1766.86 716.266 1723.67 692.382 1685.15 674.353C1671.39 704.09 1634.25 773.633 1560.79 821.868C1490.91 867.761 1425.43 869.868 1396.82 868.932C1388.29 866.356 1371.78 859.8 1357.2 842.005C1350.32 833.809 1345.92 825.38 1343.17 818.59C1320.06 848.795 1282.36 891.176 1227.06 925.83C1161.03 967.509 1018.24 989.285 1000.63 972.895C976.973 950.416 977.799 916.23 978.074 912.484C955.514 935.899 932.678 959.548 910.118 982.963C877.928 952.289 834.733 916.933 779.983 885.791C730.46 857.458 684.514 839.897 647.097 828.892C614.632 858.161 514.761 942.923 395.356 959.782C341.157 967.509 279.528 984.368 251.19 942.923C228.905 910.845 237.434 861.205 242.661 838.961C198.916 866.122 151.87 900.074 103.998 942.923C89.1409 956.27 74.8343 969.851 61.6283 983.197C45.3958 978.983 1.10051 953.46 1.10051 953.46L0 1143.36C0 1143.36 1446.06 1136.8 2179 1133.52" fill="url(#paint9_linear)"/>
<path id="Vector_2" d="M0 918.572C11.0051 910.611 22.0101 902.415 33.2903 894.454C33.0152 896.093 30.539 914.357 47.0466 927.235C61.9034 938.709 80.3369 936.835 82.813 936.601C88.5907 937.07 122.156 938.709 146.092 917.869C155.446 909.674 160.123 900.776 162.6 894.454C177.181 901.479 192.038 908.503 206.62 915.528C245.137 884.62 296.311 849.497 360.691 817.185C404.986 794.94 447.08 778.316 484.497 765.672C497.979 786.511 534.02 834.98 605.553 868.698C673.509 900.776 737.063 902.181 765.126 901.479C773.38 899.606 789.612 895.157 803.644 882.747C810.247 876.893 814.649 871.039 817.4 866.356C839.685 887.43 876.552 916.933 930.202 941.284C994.306 970.319 1133.25 985.773 1150.3 974.065C1173.14 958.377 1172.31 934.494 1172.31 931.918L1238.34 981.09C1269.71 959.782 1311.8 934.962 1364.9 913.186C1413.05 893.283 1457.62 881.108 1494.21 873.381C1525.85 893.752 1622.97 952.992 1739.07 964.699C1791.9 970.085 1851.6 982.026 1879.39 952.992C1900.85 930.513 1892.59 896.093 1887.64 880.405C1930.29 899.371 1975.96 923.021 2022.45 952.992C2037.03 962.358 2050.79 971.724 2063.72 981.09C2079.68 978.046 2100.86 972.426 2122.6 960.25C2145.71 947.372 2179 936.367 2179.28 935.899V1093.48L0 1086.46" fill="url(#paint10_linear)"/>
</g>
<g id="Grass">
<path id="grass 3" d="M1.37563 978.514C54.1999 958.377 120.505 938.709 198.091 927.938C419.568 897.03 570.887 960.719 817.125 1011.53C933.503 1035.41 1092.8 1048.53 1411.4 1074.75C1749.8 1102.61 2179 1122.98 2179 1122.98V1212.9C2179 1212.9 34.941 1292.98 0 1300.47L1.37563 978.514Z" fill="url(#paint11_linear)"/>
<path id="grass 2" d="M1.37561 1060.47C193.689 1109.4 527.417 1185.97 920.297 1116.9C961.841 1109.64 947.535 1110.81 1022.09 1095.82C1383.89 1022.77 2179 1048.29 2179 1048.29C2179 1048.29 2179 1274.25 2179 1272.61C2179 1270.97 700.747 1515.89 4.67713 1168.18C0.275105 1090.44 4.12687 1160.68 1.92586 1074.75C1.65074 1070.3 1.65074 1065.62 1.37561 1060.47Z" fill="url(#paint12_linear)"/>
<path id="grass" d="M2179 1172.39C1858.2 1205.17 1496.41 1227.42 1099.95 1227.65C696.345 1227.88 328.226 1205.64 2.75122 1172.39V1433.23H2179V1172.39Z" fill="url(#paint13_linear)"/>
</g>
<g id="tree leaves">
<path id="Vector_3" d="M1946.25 1207.51C1984.84 1207.51 2016.13 1180.89 2016.13 1148.04C2016.13 1115.19 1984.84 1088.56 1946.25 1088.56C1907.65 1088.56 1876.37 1115.19 1876.37 1148.04C1876.37 1180.89 1907.65 1207.51 1946.25 1207.51Z" fill="#1B6D00"/>
<path id="Vector_4" d="M1871.97 1191.36C1910.56 1191.36 1941.85 1164.73 1941.85 1131.88C1941.85 1099.04 1910.56 1072.41 1871.97 1072.41C1833.37 1072.41 1802.08 1099.04 1802.08 1131.88C1802.08 1164.73 1833.37 1191.36 1871.97 1191.36Z" fill="#1B6D00"/>
<path id="Vector_5" d="M1790.25 1191.83C1828.85 1191.83 1860.14 1165.2 1860.14 1132.35C1860.14 1099.5 1828.85 1072.88 1790.25 1072.88C1751.66 1072.88 1720.37 1099.5 1720.37 1132.35C1720.37 1165.2 1751.66 1191.83 1790.25 1191.83Z" fill="#6C63FF"/>
<path id="Vector_6" d="M1763.57 1207.51C1802.16 1207.51 1833.45 1180.89 1833.45 1148.04C1833.45 1115.19 1802.16 1088.56 1763.57 1088.56C1724.97 1088.56 1693.68 1115.19 1693.68 1148.04C1693.68 1180.89 1724.97 1207.51 1763.57 1207.51Z" fill="#1B6D00"/>
<path id="Vector_7" d="M1718.72 1212.66C1757.32 1212.66 1788.6 1186.04 1788.6 1153.19C1788.6 1120.34 1757.32 1093.72 1718.72 1093.72C1680.13 1093.72 1648.84 1120.34 1648.84 1153.19C1648.84 1186.04 1680.13 1212.66 1718.72 1212.66Z" fill="#1B6D00"/>
<path id="Vector_8" d="M1700.29 1165.83C1738.88 1165.83 1770.17 1139.21 1770.17 1106.36C1770.17 1073.51 1738.88 1046.89 1700.29 1046.89C1661.69 1046.89 1630.4 1073.51 1630.4 1106.36C1630.4 1139.21 1661.69 1165.83 1700.29 1165.83Z" fill="#1B6D00"/>
<path id="Vector_9" d="M1827.4 1070.54C1865.99 1070.54 1897.28 1043.91 1897.28 1011.06C1897.28 978.214 1865.99 951.587 1827.4 951.587C1788.8 951.587 1757.51 978.214 1757.51 1011.06C1757.51 1043.91 1788.8 1070.54 1827.4 1070.54Z" fill="#6C63FF"/>
</g>
<path id="tree branch" d="M1890.4 1220.63C1890.4 1220.63 1933.04 1190.19 1911.86 1146.63L1890.67 1139.84L1867.84 1199.79L1890.4 1220.63Z" fill="#67647E"/>
<path id="Vector_10" opacity="0.1" d="M1894.53 1137.5L1899.48 1139.14L1876.92 1198.15L1896.45 1216.18C1894.8 1217.58 1893.7 1218.28 1893.7 1218.28L1871.14 1197.68L1894.53 1137.5Z" fill="black"/>
<g id="tree plant">
<path id="Vector_11" d="M1992.47 1245.68C1992.47 1245.68 1978.71 1257.39 1986.42 1274.95C1994.4 1292.51 1972.94 1321.54 1972.94 1321.54H1973.49C2002.1 1317.33 2016.13 1289.47 2000.45 1268.86C1994.67 1261.37 1989.99 1252.47 1992.47 1245.68Z" fill="#1B6D00"/>
<path id="Vector_12" d="M1992.47 1245.68C1992.47 1245.68 1984.49 1260.2 1992.47 1271.9C2000.45 1283.61 1993.85 1316.86 1972.94 1321.78" stroke="#535461" stroke-miterlimit="10"/>
<path id="Vector_13" d="M2017.23 1293.68C2017.23 1293.68 2001.28 1291.57 1999.9 1303.51C1998.52 1315.69 1969.36 1317.33 1969.36 1317.33L1969.91 1317.56C1993.85 1330.91 2016.68 1325.99 2013.38 1308.2C2012.28 1301.64 2012.28 1295.09 2017.23 1293.68Z" fill="#0C8921"/>
<path id="Vector_14" d="M2017.23 1293.68C2017.23 1293.68 2004.85 1296.02 2005.95 1305.39C2007.05 1314.99 1987.79 1326.23 1969.36 1317.33" stroke="#535461" stroke-miterlimit="10"/>
</g>
<g id="tree trunk shadow" opacity="0.1">
<path id="Vector_15" opacity="0.1" d="M1750.91 1193.93C1750.91 1193.93 1774.3 1206.11 1825.19 1194.87C1876.37 1183.63 1870.59 1138.2 1870.59 1138.2L1878.57 1139.14C1878.29 1136.33 1878.29 1134.46 1878.29 1134.46L1836.2 1129.78C1836.2 1129.78 1841.7 1175.2 1790.8 1186.44C1739.63 1197.68 1716.52 1185.5 1716.52 1185.5L1722.02 1204.47C1722.02 1204.47 1736.88 1206.11 1754.49 1206.81L1750.91 1193.93Z" fill="black"/>
<path id="Vector_16" opacity="0.1" d="M1849.41 1322.48C1856.01 1318.73 1863.71 1316.16 1871.69 1315.22C1879.67 1314.29 1885.72 1309.13 1886.82 1302.34C1893.43 1258.79 1853.26 1216.88 1845.28 1211.73C1836.47 1206.11 1832.07 1212.66 1832.07 1212.66C1829.05 1213.37 1825.74 1213.84 1822.44 1214.3C1836.75 1230.69 1857.38 1261.84 1852.71 1293.91C1851.61 1300.71 1845.55 1305.86 1837.57 1306.79C1829.6 1307.73 1821.89 1310.07 1815.29 1314.05L1795.48 1325.29L1846.65 1324.35L1849.41 1322.48Z" fill="black"/>
</g>
<path id="tree trunk" d="M1719 1188.55L1724.5 1207.51C1724.5 1207.51 1763.57 1211.96 1789.7 1209.15C1794.38 1208.68 1798.78 1207.28 1802.63 1205.17C1804.83 1204 1808.41 1203.53 1813.09 1206.58C1821.34 1211.73 1861.24 1253.64 1854.91 1297.19C1853.81 1303.98 1847.75 1309.13 1839.78 1310.07C1831.8 1311.01 1824.09 1313.35 1817.49 1317.33L1797.68 1328.57L2000.72 1324.82L1979.54 1303.05C1979.54 1303.05 1965.23 1292.74 1953.95 1291.81C1950.65 1291.57 1948.18 1289 1945.97 1285.49C1933.32 1265.35 1918.19 1246.38 1901.68 1228.35C1889.85 1215.24 1879.67 1201.19 1880.77 1192.53C1882.97 1171.69 1880.77 1137.74 1880.77 1137.74L1838.68 1133.05C1838.68 1133.05 1844.18 1178.48 1793.28 1189.72C1742.11 1200.96 1719 1188.55 1719 1188.55Z" fill="#67647E"/>
<g id="Plant">
<path id="Vector_17" d="M1752.84 1280.33C1752.84 1280.33 1748.71 1268.16 1753.66 1259.03C1755.86 1255.28 1756.41 1251.07 1755.59 1246.85C1755.04 1244.98 1754.49 1243.1 1753.66 1241.23" stroke="#535461" stroke-width="2" stroke-miterlimit="10"/>
<path id="Vector_18" d="M1756.69 1235.38C1756.69 1236.78 1753.39 1241.23 1753.39 1241.23C1753.39 1241.23 1750.08 1236.78 1750.08 1235.38C1750.08 1233.97 1751.46 1232.57 1753.39 1232.57C1755.31 1232.8 1756.69 1233.97 1756.69 1235.38Z" fill="#0C8921"/>
</g>
<g id="Rock 2">
<path id="Vector_19" d="M1743.76 1279.16C1743.76 1279.16 1751.46 1277.76 1753.66 1276.12C1755.86 1274.25 1764.94 1271.2 1766.04 1273.54C1767.14 1275.65 1780.07 1283.14 1771.27 1284.55C1762.47 1285.95 1750.63 1286.19 1748.16 1285.49C1745.68 1284.78 1743.76 1279.16 1743.76 1279.16Z" fill="#A8A8A8"/>
<path id="Vector_20" opacity="0.2" d="M1770.99 1283.61C1762.19 1285.02 1750.36 1285.25 1747.88 1284.55C1745.96 1283.85 1744.58 1280.57 1744.03 1279.16H1743.76C1743.76 1279.16 1745.41 1284.55 1747.88 1285.25C1750.36 1286.19 1762.47 1285.72 1770.99 1284.31C1773.47 1283.85 1774.3 1283.14 1774.02 1281.97C1773.75 1282.68 1772.92 1283.14 1770.99 1283.61Z" fill="black"/>
<path id="Vector_21" d="M1872.24 1320.37C1872.24 1320.37 1895.63 1316.39 1901.95 1311.01C1908.28 1305.62 1936.35 1296.26 1939.65 1303.05C1942.95 1309.84 1982.02 1332.32 1955.33 1336.53C1928.64 1340.51 1892.6 1341.92 1884.62 1339.11C1876.92 1336.53 1872.24 1320.37 1872.24 1320.37Z" fill="#A8A8A8"/>
<path id="Vector_22" opacity="0.2" d="M1955.33 1333.95C1928.64 1337.94 1892.6 1339.34 1884.62 1336.53C1878.57 1334.42 1874.44 1324.82 1872.79 1320.14L1871.97 1320.37C1871.97 1320.37 1876.64 1336.3 1884.62 1339.11C1892.6 1341.92 1928.64 1340.51 1955.33 1336.53C1963.03 1335.36 1965.23 1332.55 1964.41 1329.27C1963.86 1331.38 1961.11 1333.02 1955.33 1333.95Z" fill="black"/>
</g>
<g id="Person 2 hand">
<path id="Vector_23" opacity="0.1" d="M1867.56 1287.12C1865.36 1288.76 1862.89 1289.7 1860.14 1290.17C1860.69 1287.83 1862.06 1285.72 1863.99 1284.08C1867.01 1281.5 1870.59 1280.33 1871.42 1281.04C1872.52 1281.74 1870.87 1284.55 1867.56 1287.12Z" fill="black"/>
<path id="Vector_24" d="M1867.56 1287.12C1865.36 1288.76 1862.89 1289.7 1860.14 1290.17C1860.69 1287.83 1862.06 1285.72 1863.99 1284.08C1867.01 1281.5 1870.59 1280.33 1871.42 1281.04C1872.52 1281.74 1870.87 1284.55 1867.56 1287.12Z" fill="#6C63FF"/>
</g>
<g id="big leaf 1">
<path id="Vector_25" d="M1365.73 1259.26C1376.19 1272.37 1372.89 1319.44 1372.89 1319.44C1372.89 1319.44 1320.34 1304.69 1309.88 1291.34C1299.43 1278.23 1303.55 1260.2 1318.96 1251.3C1334.37 1242.64 1355.28 1246.15 1365.73 1259.26Z" fill="#0C8921"/>
<path id="Vector_26" d="M1318.96 1251.53C1318.96 1251.53 1358.3 1277.52 1373.16 1319.44" stroke="#535461" stroke-miterlimit="10"/>
</g>
<g id="big leaf 2">
<path id="Vector_27" d="M1383.07 1283.85C1383.07 1283.85 1355 1279.87 1374.26 1319.2C1374.26 1319.2 1393.8 1312.88 1395.17 1297.19C1395.72 1290.87 1390.77 1285.25 1383.34 1283.85H1383.07Z" fill="#0C8921"/>
<path id="Vector_28" d="M1383.62 1283.85C1383.62 1283.85 1388.84 1305.62 1374.26 1319.2" stroke="#535461" stroke-miterlimit="10"/>
</g>
<g id="Rock">
<path id="Vector_29" d="M1993.02 1320.61C1993.02 1320.61 2004.58 1318.73 2007.88 1315.93C2010.9 1313.35 2024.94 1308.67 2026.59 1311.94C2028.24 1315.22 2047.5 1326.46 2034.29 1328.34C2021.08 1330.21 2003.2 1330.91 1999.35 1329.74C1995.5 1328.33 1993.02 1320.61 1993.02 1320.61Z" fill="#A8A8A8"/>
<path id="Vector_30" opacity="0.2" d="M2034.57 1327.16C2021.36 1329.04 2003.48 1329.74 1999.62 1328.57C1996.6 1327.63 1994.67 1322.72 1993.85 1320.61H1993.57C1993.57 1320.61 1995.77 1328.57 1999.9 1329.74C2003.75 1331.14 2021.63 1330.44 2034.84 1328.33C2038.69 1327.87 2039.79 1326.46 2039.24 1324.82C2038.69 1325.99 2037.32 1326.7 2034.57 1327.16Z" fill="black"/>
</g>
<g id="Tree">
<path id="Vector_31" d="M1946.25 1194.17C1984.84 1194.17 2016.13 1167.54 2016.13 1134.69C2016.13 1101.85 1984.84 1075.22 1946.25 1075.22C1907.65 1075.22 1876.37 1101.85 1876.37 1134.69C1876.37 1167.54 1907.65 1194.17 1946.25 1194.17Z" fill="#0C8921"/>
<path id="Vector_32" d="M1871.97 1178.01C1910.56 1178.01 1941.85 1151.38 1941.85 1118.54C1941.85 1085.69 1910.56 1059.06 1871.97 1059.06C1833.37 1059.06 1802.08 1085.69 1802.08 1118.54C1802.08 1151.38 1833.37 1178.01 1871.97 1178.01Z" fill="#0C8921"/>
<path id="Vector_33" d="M1790.25 1178.48C1828.85 1178.48 1860.14 1151.85 1860.14 1119C1860.14 1086.16 1828.85 1059.53 1790.25 1059.53C1751.66 1059.53 1720.37 1086.16 1720.37 1119C1720.37 1151.85 1751.66 1178.48 1790.25 1178.48Z" fill="#0C8921"/>
<path id="Vector_34" d="M1763.57 1194.17C1802.16 1194.17 1833.45 1167.54 1833.45 1134.69C1833.45 1101.85 1802.16 1075.22 1763.57 1075.22C1724.97 1075.22 1693.68 1101.85 1693.68 1134.69C1693.68 1167.54 1724.97 1194.17 1763.57 1194.17Z" fill="#0C8921"/>
<path id="Vector_35" d="M1718.72 1199.32C1757.32 1199.32 1788.6 1172.69 1788.6 1139.84C1788.6 1107 1757.32 1080.37 1718.72 1080.37C1680.13 1080.37 1648.84 1107 1648.84 1139.84C1648.84 1172.69 1680.13 1199.32 1718.72 1199.32Z" fill="#0C8921"/>
<path id="Vector_36" d="M1700.29 1152.49C1738.88 1152.49 1770.17 1125.86 1770.17 1093.01C1770.17 1060.17 1738.88 1033.54 1700.29 1033.54C1661.69 1033.54 1630.4 1060.17 1630.4 1093.01C1630.4 1125.86 1661.69 1152.49 1700.29 1152.49Z" fill="#0C8921"/>
<path id="Vector_37" d="M1720.65 1097.93C1759.24 1097.93 1790.53 1071.3 1790.53 1038.46C1790.53 1005.61 1759.24 978.983 1720.65 978.983C1682.05 978.983 1650.76 1005.61 1650.76 1038.46C1650.76 1071.3 1682.05 1097.93 1720.65 1097.93Z" fill="#0C8921"/>
<path id="Vector_38" d="M1759.44 1097.93C1798.03 1097.93 1829.32 1071.3 1829.32 1038.46C1829.32 1005.61 1798.03 978.983 1759.44 978.983C1720.84 978.983 1689.56 1005.61 1689.56 1038.46C1689.56 1071.3 1720.84 1097.93 1759.44 1097.93Z" fill="#1B6D00"/>
<path id="Vector_39" d="M1782 1073.58C1820.59 1073.58 1851.88 1046.95 1851.88 1014.11C1851.88 981.258 1820.59 954.631 1782 954.631C1743.4 954.631 1712.12 981.258 1712.12 1014.11C1712.12 1046.95 1743.4 1073.58 1782 1073.58Z" fill="#0C8921"/>
<path id="Vector_40" d="M1839.23 1100.27C1877.82 1100.27 1909.11 1073.64 1909.11 1040.8C1909.11 1007.95 1877.82 981.324 1839.23 981.324C1800.63 981.324 1769.34 1007.95 1769.34 1040.8C1769.34 1073.64 1800.63 1100.27 1839.23 1100.27Z" fill="#0C8921"/>
<path id="Vector_41" d="M1972.94 1152.49C2011.53 1152.49 2042.82 1125.86 2042.82 1093.01C2042.82 1060.17 2011.53 1033.54 1972.94 1033.54C1934.34 1033.54 1903.05 1060.17 1903.05 1093.01C1903.05 1125.86 1934.34 1152.49 1972.94 1152.49Z" fill="#0C8921"/>
<path id="Vector_42" d="M1932.49 1122.75C1971.09 1122.75 2002.38 1096.12 2002.38 1063.28C2002.38 1030.43 1971.09 1003.8 1932.49 1003.8C1893.9 1003.8 1862.61 1030.43 1862.61 1063.28C1862.61 1096.12 1893.9 1122.75 1932.49 1122.75Z" fill="#1B6D00"/>
<path id="Vector_43" d="M1906.63 1093.25C1945.23 1093.25 1976.51 1066.62 1976.51 1033.77C1976.51 1000.93 1945.23 974.3 1906.63 974.3C1868.04 974.3 1836.75 1000.93 1836.75 1033.77C1836.75 1066.62 1868.04 1093.25 1906.63 1093.25Z" fill="#0C8921"/>
<path id="Vector_44" d="M1857.66 1048.53C1896.25 1048.53 1927.54 1021.9 1927.54 989.051C1927.54 956.204 1896.25 929.577 1857.66 929.577C1819.06 929.577 1787.78 956.204 1787.78 989.051C1787.78 1021.9 1819.06 1048.53 1857.66 1048.53Z" fill="#0C8921"/>
<path id="Vector_45" d="M2016.68 1052.84C2026.04 1020.97 2003.28 988.682 1965.84 980.717C1928.4 972.751 1890.46 992.126 1881.1 1023.99C1871.74 1055.85 1894.5 1088.14 1931.94 1096.11C1969.39 1104.07 2007.32 1084.7 2016.68 1052.84Z" fill="#0C8921"/>
</g>
<g id="Tree shadow">
<path id="Vector_46" opacity="0.1" d="M2015.86 1047.82C2015.86 1047.82 1950.93 1021.6 1911.58 1068.19Z" fill="black"/>
<path id="Vector_47" opacity="0.1" d="M1845 994.436C1845 994.436 1772.92 992.563 1758.89 1048.53Z" fill="#164F01"/>
<path id="Vector_48" opacity="0.1" d="M1755.59 1116.19C1755.59 1116.19 1690.66 1089.97 1651.31 1136.57Z" fill="black"/>
</g>
<g id="leaf 2">
<path id="Vector_49" d="M1470.83 1264.41C1470.83 1264.41 1474.68 1268.63 1469.18 1274.95C1463.68 1281.27 1459.28 1286.66 1460.93 1290.4C1460.93 1290.4 1469.18 1278.7 1476.06 1278.46C1482.66 1278.23 1478.26 1271.44 1470.83 1264.41Z" fill="#0C8921"/>
<path id="Vector_50" opacity="0.1" d="M1470.83 1264.41C1471.11 1264.88 1471.38 1265.35 1471.66 1265.82C1478.26 1272.37 1481.84 1278.46 1475.51 1278.7C1469.73 1278.93 1462.58 1287.83 1460.93 1290.17C1460.93 1290.4 1460.93 1290.4 1461.2 1290.64C1461.2 1290.64 1469.46 1278.93 1476.33 1278.7C1483.21 1278.46 1478.26 1271.44 1470.83 1264.41Z" fill="black"/>
<path id="Vector_51" d="M1477.71 1269.56C1477.71 1270.97 1477.43 1272.14 1477.16 1272.14C1476.88 1272.14 1476.61 1270.97 1476.61 1269.56C1476.61 1268.16 1476.88 1268.86 1477.16 1268.86C1477.43 1268.86 1477.71 1268.16 1477.71 1269.56Z" fill="#FFD037"/>
<path id="Vector_52" d="M1480.19 1271.44C1478.54 1272.14 1477.43 1272.61 1477.16 1272.37C1477.16 1272.14 1478.26 1271.44 1479.64 1270.73C1481.01 1270.03 1480.46 1270.5 1480.74 1270.73C1480.74 1270.97 1481.56 1270.73 1480.19 1271.44Z" fill="#FFD037"/>
</g>
<g id="leaf 1">
<path id="Vector_53" d="M1451.02 1264.41C1451.02 1264.41 1447.17 1268.63 1452.67 1274.95C1458.18 1281.27 1462.58 1286.66 1460.93 1290.4C1460.93 1290.4 1452.67 1278.7 1445.79 1278.46C1439.19 1278.23 1443.59 1271.44 1451.02 1264.41Z" fill="#0C8921"/>
<path id="Vector_54" opacity="0.1" d="M1451.02 1264.41C1450.75 1264.88 1450.47 1265.35 1450.2 1265.82C1443.59 1272.37 1440.02 1278.46 1446.35 1278.7C1452.12 1278.93 1459.28 1287.83 1460.93 1290.17C1460.93 1290.4 1460.93 1290.4 1460.65 1290.64C1460.65 1290.64 1452.4 1278.93 1445.52 1278.7C1439.19 1278.46 1443.59 1271.44 1451.02 1264.41Z" fill="black"/>
<path id="Vector_55" d="M1443.87 1269.56C1443.87 1270.97 1444.14 1272.14 1444.42 1272.14C1444.69 1272.14 1444.97 1270.97 1444.97 1269.56C1444.97 1268.16 1444.69 1268.86 1444.42 1268.86C1444.14 1268.86 1443.87 1268.16 1443.87 1269.56Z" fill="#FFD037"/>
<path id="Vector_56" d="M1441.67 1271.44C1443.32 1272.14 1444.42 1272.61 1444.69 1272.37C1444.69 1272.14 1443.59 1271.44 1442.22 1270.73C1440.84 1270.03 1441.39 1270.5 1441.12 1270.73C1440.84 1270.97 1440.02 1270.73 1441.67 1271.44Z" fill="#FFD037"/>
</g>
<g id="Rock 1">
<path id="Vector_57" d="M1445.24 1289.93C1445.24 1289.93 1455.7 1289.7 1459 1287.83C1462.3 1285.95 1475.23 1283.61 1476.06 1286.66C1476.88 1289.7 1491.74 1301.88 1479.91 1302.11C1468.08 1302.11 1452.4 1300.47 1449.1 1298.83C1445.79 1296.96 1445.24 1289.93 1445.24 1289.93Z" fill="#A8A8A8"/>
<path id="Vector_58" opacity="0.2" d="M1479.91 1300.7C1468.08 1300.7 1452.4 1299.07 1449.1 1297.43C1446.62 1296.26 1445.79 1291.81 1445.52 1289.7H1445.24C1445.24 1289.7 1445.79 1296.96 1449.1 1298.6C1452.12 1300.24 1467.81 1301.88 1479.91 1301.88C1483.21 1301.88 1484.59 1300.71 1484.31 1299.3C1483.76 1300.24 1482.39 1300.7 1479.91 1300.7Z" fill="black"/>
</g>
<path id="Grass 1" d="M1385.82 1347.3C1387.19 1346.36 1388.02 1345.19 1388.57 1344.02C1388.84 1342.62 1388.29 1340.98 1386.64 1340.51C1384.99 1340.04 1383.07 1340.98 1381.69 1341.92C1380.31 1342.85 1378.66 1344.02 1377.01 1343.79C1378.94 1342.38 1379.76 1340.28 1379.21 1338.17C1379.21 1337.7 1378.94 1337.23 1378.66 1337C1377.84 1336.06 1375.91 1336.53 1374.81 1337.23C1371.24 1339.34 1370.14 1343.55 1370.14 1347.07C1369.86 1345.66 1370.14 1344.26 1370.14 1343.09C1370.14 1341.68 1369.58 1340.28 1368.21 1339.57C1367.38 1339.11 1366.56 1339.11 1365.46 1339.11C1363.81 1339.11 1362.16 1339.11 1361.06 1340.28C1359.68 1341.45 1359.96 1343.55 1361.33 1344.96C1362.43 1346.36 1364.36 1347.07 1366.01 1348C1367.38 1348.71 1368.48 1349.64 1369.31 1350.58C1369.31 1350.81 1369.58 1350.81 1369.58 1351.05H1379.49C1381.69 1350.11 1383.89 1348.71 1385.82 1347.3Z" fill="#0C8921"/>
<path id="Grass 2" d="M2007.33 1355.5C2008.7 1354.56 2009.53 1353.39 2010.08 1352.22C2010.35 1350.81 2009.8 1349.17 2008.15 1348.71C2006.5 1348.24 2004.58 1349.17 2003.2 1350.11C2001.83 1351.05 2000.17 1352.22 1998.52 1351.98C2000.45 1350.58 2001.28 1348.47 2000.72 1346.36C2000.72 1345.9 2000.45 1345.43 2000.17 1345.19C1999.35 1344.26 1997.42 1344.73 1996.32 1345.43C1992.75 1347.54 1991.65 1351.75 1991.65 1355.26C1991.37 1353.86 1991.65 1352.45 1991.65 1351.28C1991.65 1349.88 1991.1 1348.47 1989.72 1347.77C1988.89 1347.3 1988.07 1347.3 1986.97 1347.3C1985.32 1347.3 1983.67 1347.3 1982.57 1348.47C1981.19 1349.64 1981.47 1351.75 1982.84 1353.15C1983.94 1354.56 1985.87 1355.26 1987.52 1356.2C1988.89 1356.9 1990 1357.84 1990.82 1358.77C1990.82 1359.01 1991.1 1359.01 1991.1 1359.24H2001C2003.48 1358.07 2005.68 1356.9 2007.33 1355.5Z" fill="#0C8921"/>
<g id="Person 2">
<path id="Vector_59" d="M1774.57 1352.22C1774.57 1352.22 1774.02 1361.35 1775.12 1362.75C1775.12 1362.75 1743.76 1367.67 1739.9 1366.03C1736.05 1364.63 1737.7 1362.05 1739.9 1361.12C1742.11 1360.18 1752.84 1356.9 1754.21 1350.58C1754.21 1350.58 1749.53 1348.71 1764.67 1351.05C1779.52 1353.86 1774.57 1352.22 1774.57 1352.22Z" fill="#DC9BA3"/>
<path id="Vector_60" opacity="0.05" d="M1774.57 1352.22C1774.57 1352.22 1774.02 1361.35 1775.12 1362.75C1775.12 1362.75 1743.76 1367.67 1739.9 1366.03C1736.05 1364.63 1737.7 1362.05 1739.9 1361.12C1742.11 1360.18 1752.84 1356.9 1754.21 1350.58C1754.21 1350.58 1749.53 1348.71 1764.67 1351.05C1779.52 1353.86 1774.57 1352.22 1774.57 1352.22Z" fill="black"/>
<path id="Vector_61" d="M1896.73 1263.94C1896.73 1263.94 1892.88 1269.33 1895.35 1280.1C1897.83 1290.64 1889.02 1290.64 1889.02 1290.64H1871.14L1865.09 1277.29L1873.62 1277.76C1873.62 1277.76 1879.39 1276.59 1876.92 1265.35L1896.73 1263.94Z" fill="#FFD2D9"/>
<path id="Vector_62" d="M1843.35 1251.3C1846.1 1258.79 1849.41 1267.69 1851.33 1272.37L1852.71 1275.65L1864.54 1265.35C1864.54 1265.35 1863.99 1264.41 1863.16 1263.01C1861.51 1259.73 1858.48 1254.58 1856.83 1254.34C1856.83 1254.34 1873.34 1253.41 1878.29 1256.68C1883.25 1259.96 1881.87 1247.55 1881.87 1247.55C1881.87 1247.55 1872.24 1247.08 1868.66 1245.21C1865.09 1243.34 1845.83 1241.47 1845.83 1241.47C1845.83 1241.47 1839.5 1240.76 1843.35 1251.3Z" fill="#FFD2D9"/>
<path id="Vector_63" d="M1736.33 1340.51L1738.8 1355.96L1745.13 1355.5C1745.13 1355.5 1745.41 1355.26 1746.23 1354.79C1747.88 1353.39 1751.46 1351.05 1755.04 1349.64C1756.14 1349.17 1757.51 1348.71 1758.89 1348.71L1751.74 1339.57C1750.08 1340.04 1748.16 1340.51 1746.51 1340.98C1744.58 1341.45 1742.66 1341.45 1740.73 1341.45C1739.08 1341.21 1737.7 1340.98 1736.33 1340.51Z" fill="#FFD2D9"/>
<path id="Vector_64" d="M1754.21 1351.52C1757.51 1353.86 1772.09 1348.71 1774.57 1356.67L1776.77 1349.17L1783.93 1326.23L1785.03 1322.95L1790.8 1322.72L1858.48 1320.37L1862.34 1320.14H1864.26L1861.51 1318.97L1843.63 1311.48C1843.63 1311.48 1837.3 1311.01 1828.22 1310.07C1814.74 1308.43 1795.76 1305.39 1785.03 1300C1767.14 1290.87 1760.54 1321.54 1760.54 1321.54C1760.54 1321.54 1757.79 1329.27 1755.86 1337C1755.04 1340.28 1754.21 1343.55 1753.66 1347.07C1753.39 1349.17 1753.66 1350.81 1754.21 1351.52Z" fill="#E9E9EF"/>
<path id="Vector_65" opacity="0.05" d="M1754.21 1351.52C1757.51 1353.86 1772.09 1348.71 1774.57 1356.67L1776.77 1349.17L1783.93 1326.23L1785.03 1322.95L1791.08 1322.72L1856.28 1319.2L1860.41 1318.97H1861.79H1863.44L1843.9 1311.48C1843.9 1311.48 1837.57 1311.01 1828.5 1310.07C1815.01 1308.43 1796.03 1305.39 1785.3 1300C1767.42 1290.87 1760.81 1321.54 1760.81 1321.54C1760.81 1321.54 1758.06 1329.27 1756.14 1337C1755.31 1340.28 1754.49 1343.55 1753.94 1347.07C1753.39 1349.17 1753.66 1350.81 1754.21 1351.52Z" fill="black"/>
<path id="Vector_66" opacity="0.1" d="M1746.51 1340.51L1752.84 1346.83L1755.31 1349.41C1756.41 1348.94 1757.79 1348.47 1759.16 1348.47L1752.01 1339.34C1750.08 1339.81 1748.16 1340.28 1746.51 1340.51Z" fill="black"/>
<path id="Vector_67" d="M1746.78 1339.81L1753.66 1346.83L1756.96 1350.11V1351.05C1761.09 1351.75 1774.02 1349.64 1776.77 1348.94H1777.32C1785.58 1349.17 1815.84 1334.19 1815.84 1334.19C1815.84 1334.19 1849.13 1339.11 1865.09 1337.94C1874.17 1337.23 1876.64 1334.42 1876.92 1332.08C1877.19 1330.91 1876.92 1329.74 1876.37 1328.8L1862.06 1320.14L1860.14 1318.97L1857.11 1317.1C1857.11 1317.1 1851.88 1316.16 1845 1314.75C1834.55 1312.88 1820.52 1310.31 1817.77 1310.07C1813.09 1309.84 1801.26 1313.12 1794.66 1319.67C1793.55 1320.61 1792.18 1321.54 1790.8 1322.48H1790.53C1788.6 1323.65 1786.4 1324.59 1783.65 1325.76C1775.12 1329.74 1763.57 1333.72 1755.59 1336.53C1750.36 1338.64 1746.78 1339.81 1746.78 1339.81Z" fill="#E9E9EF"/>
<path id="Vector_68" opacity="0.1" d="M1736.33 1340.51L1738.8 1355.96L1745.13 1355.5C1745.13 1355.5 1745.41 1355.26 1746.23 1354.79C1744.86 1354.79 1742.38 1354.56 1742.11 1351.98C1742.11 1351.98 1744.58 1344.73 1740.73 1341.45C1739.08 1341.21 1737.7 1340.98 1736.33 1340.51Z" fill="black"/>
<path id="Vector_69" d="M1741.28 1351.75C1741.28 1351.75 1744.86 1341.21 1736.6 1339.81L1723.12 1344.26L1707.44 1345.19C1707.44 1345.19 1703.31 1350.81 1709.92 1357.37C1713.49 1360.88 1718.72 1362.99 1724.22 1363.22L1741.28 1363.93L1746.78 1354.56C1746.78 1354.56 1742.11 1355.26 1741.28 1351.75Z" fill="#DC9BA3"/>
<path id="Vector_70" opacity="0.1" d="M1828.5 1309.84C1830.42 1310.31 1837.85 1312.18 1845.28 1314.75C1849.13 1315.92 1852.71 1317.33 1856.28 1318.97C1857.11 1319.44 1857.66 1319.67 1858.48 1320.14C1860.14 1321.08 1861.79 1322.01 1863.16 1323.42C1867.56 1328.33 1873.89 1330.91 1877.19 1331.85C1877.47 1330.68 1877.19 1329.51 1876.64 1328.57L1862.34 1319.91H1864.26L1861.51 1318.73H1863.16L1843.63 1311.24C1843.63 1311.24 1837.3 1311.01 1828.5 1309.84Z" fill="black"/>
<path id="Vector_71" opacity="0.1" d="M1851.33 1272.37L1852.71 1275.65L1864.54 1265.35C1864.54 1265.35 1863.99 1264.41 1863.16 1263.01C1861.51 1265.82 1854.63 1270.5 1851.33 1272.37Z" fill="black"/>
<path id="Vector_72" d="M1893.7 1277.52C1894.25 1276.59 1894.53 1275.42 1894.53 1274.25L1909.93 1278.7C1909.93 1278.7 1920.39 1285.49 1919.29 1300.47C1919.29 1300.47 1906.36 1296.49 1900.58 1301.17V1302.11C1899.48 1310.54 1895.08 1318.5 1887.92 1324.59C1885.17 1327.16 1882.42 1329.97 1881.04 1332.78C1881.04 1332.78 1871.14 1330.44 1865.09 1323.65C1859.03 1316.86 1830.15 1310.07 1830.15 1310.07C1830.15 1310.07 1845.55 1310.31 1847.48 1305.86C1849.68 1301.41 1856.83 1291.57 1854.36 1284.08C1851.88 1276.59 1850.51 1274.01 1850.51 1274.01C1850.51 1274.01 1865.09 1265.11 1863.99 1262.54L1873.34 1271.67L1877.74 1272.84C1877.47 1273.54 1877.19 1274.25 1877.19 1274.95C1876.92 1283.38 1890.67 1285.25 1893.7 1277.52Z" fill="#CEDAD5"/>
<path id="Vector_73" opacity="0.1" d="M1877.47 1269.56C1877.47 1268.39 1877.19 1267.22 1876.92 1266.28L1897 1264.88C1897 1264.88 1895.63 1265.82 1895.08 1269.8C1892.6 1270.97 1890.12 1272.61 1887.1 1272.61C1883.52 1272.14 1880.22 1271.2 1877.47 1269.56Z" fill="black"/>
<path id="Vector_74" d="M1886.82 1271.67C1895.48 1271.67 1902.5 1265.7 1902.5 1258.32C1902.5 1250.95 1895.48 1244.98 1886.82 1244.98C1878.16 1244.98 1871.14 1250.95 1871.14 1258.32C1871.14 1265.7 1878.16 1271.67 1886.82 1271.67Z" fill="#FFD2D9"/>
<path id="Vector_75" d="M1898.38 1261.84H1896.18V1256.68L1893.98 1251.3C1893.98 1251.3 1883.25 1247.08 1878.29 1248.02L1874.44 1251.07C1874.44 1251.07 1873.34 1243.81 1879.67 1241C1886 1238.19 1897.55 1239.59 1900.3 1241.46C1903.05 1243.57 1907.73 1247.32 1904.16 1257.15L1903.05 1259.73C1903.33 1259.73 1898.93 1258.56 1898.38 1261.84Z" fill="#844F6E"/>
<g id="Group" opacity="0.05">
<path id="Vector_76" opacity="0.05" d="M1870.59 1268.86L1869.49 1268.63L1863.99 1263.24C1863.99 1263.01 1863.99 1262.77 1863.99 1262.54L1870.59 1268.86Z" fill="black"/>
<path id="Vector_77" opacity="0.05" d="M1878.02 1278.7C1874.99 1277.52 1873.07 1274.95 1873.07 1271.9C1873.07 1271.67 1873.07 1271.67 1873.07 1271.44L1877.47 1272.61C1877.19 1273.31 1876.92 1274.01 1876.92 1274.71C1876.92 1276.35 1877.47 1277.52 1878.02 1278.7Z" fill="black"/>
<path id="Vector_78" opacity="0.05" d="M1836.47 1309.84C1845.28 1312.41 1857.38 1316.63 1861.24 1320.61L1861.51 1320.84C1851.61 1315.22 1830.15 1309.84 1830.15 1309.84C1832.35 1310.07 1834.27 1310.07 1836.47 1309.84Z" fill="black"/>
<path id="Vector_79" opacity="0.05" d="M1877.19 1329.97C1878.57 1327.16 1881.32 1324.35 1884.07 1321.78C1890.95 1315.69 1895.35 1307.73 1896.73 1299.3V1298.36C1902.5 1293.45 1915.44 1297.66 1915.44 1297.66C1915.99 1288.3 1912.13 1281.97 1909.11 1278.7L1909.93 1278.93C1909.93 1278.93 1920.39 1285.72 1919.29 1300.71C1919.29 1300.71 1906.36 1296.72 1900.58 1301.41V1302.34C1899.48 1310.77 1895.08 1318.73 1887.92 1324.82C1885.17 1327.4 1882.42 1330.21 1881.04 1333.02C1881.04 1333.02 1872.24 1330.91 1866.19 1325.29C1869.76 1327.16 1873.34 1328.8 1877.19 1329.97Z" fill="black"/>
</g>
<path id="Vector_80" d="M1881.04 1294.38C1881.04 1294.38 1898.1 1315.22 1907.18 1321.31C1916.26 1327.4 1918.46 1318.5 1918.46 1318.5V1299.3L1902.78 1297.9L1902.5 1299.77L1902.23 1301.88L1887.65 1288.53C1887.65 1288.53 1873.07 1277.29 1870.31 1284.08C1867.56 1290.87 1881.04 1294.38 1881.04 1294.38Z" fill="#FFD2D9"/>
<path id="Vector_81" opacity="0.1" d="M1902.78 1299.53C1904.98 1300.71 1907.18 1301.41 1909.66 1302.11C1912.96 1303.05 1916.81 1302.11 1918.74 1301.41V1299.07L1903.05 1297.66L1902.78 1299.53Z" fill="black"/>
<path id="Vector_82" d="M1918.74 1297.19L1919.56 1300.47C1919.56 1300.47 1914.06 1302.58 1909.38 1301.41C1906.36 1300.47 1903.33 1299.3 1900.58 1297.66C1900.03 1297.43 1903.33 1293.91 1903.33 1293.91L1918.74 1297.19Z" fill="#CEDAD5"/>
<path id="Vector_83" opacity="0.1" d="M1816.11 1334.19C1813.64 1332.55 1811.16 1331.38 1808.14 1330.44C1805.38 1329.74 1802.91 1328.57 1800.71 1327.16" fill="black"/>
<path id="Vector_84" opacity="0.2" d="M1707.44 1345.43H1707.99C1707.16 1347.3 1706.06 1351.75 1711.02 1356.67C1714.59 1360.18 1719.82 1362.29 1725.32 1362.52L1741.83 1363.22L1741.28 1364.16L1724.22 1363.46C1718.72 1363.22 1713.49 1361.12 1709.92 1357.6C1703.31 1351.05 1707.44 1345.43 1707.44 1345.43Z" fill="white"/>
<path id="Vector_85" opacity="0.05" d="M1767.97 1358.31C1767.97 1358.54 1767.97 1358.77 1767.69 1358.77C1767.42 1358.77 1767.14 1358.31 1767.97 1358.31Z" fill="#00FF00"/>
<path id="Vector_86" opacity="0.2" d="M1739.91 1365.33C1743.48 1366.74 1770.99 1362.52 1774.85 1362.05C1774.85 1362.29 1775.12 1362.76 1775.4 1362.99C1775.4 1362.99 1744.03 1367.91 1740.18 1366.27C1738.25 1365.56 1737.7 1364.39 1737.98 1363.46C1737.98 1364.16 1738.53 1364.86 1739.91 1365.33Z" fill="white"/>
<path id="Vector_87" opacity="0.1" d="M1876.64 1252C1872.79 1250.13 1869.76 1247.08 1867.56 1243.81C1867.29 1243.34 1867.29 1242.87 1867.29 1242.64C1867.56 1241.7 1868.94 1241.7 1869.76 1241.23C1871.42 1240.53 1872.24 1238.89 1873.34 1237.72C1875.27 1235.61 1878.57 1234.44 1881.59 1234.91C1883.25 1235.14 1884.62 1235.85 1886.27 1236.08C1889.85 1236.55 1893.7 1234.67 1896.73 1236.08C1898.1 1236.78 1899.2 1237.95 1900.03 1239.12C1902.23 1242.17 1904.98 1245.21 1903.05 1248.72C1901.95 1250.6 1900.03 1252.24 1897.55 1252.94C1895.08 1253.41 1892.05 1252.94 1889.57 1252.7C1887.37 1252.47 1885.17 1252.24 1882.97 1252.24C1880.77 1252.47 1879.12 1253.17 1876.64 1252Z" fill="black"/>
<path id="Vector_88" d="M1876.64 1251.53C1872.79 1249.66 1869.76 1246.62 1867.56 1243.34C1867.29 1242.87 1867.29 1242.4 1867.29 1242.17C1867.56 1241.23 1868.94 1241.23 1869.76 1240.76C1871.42 1240.06 1872.24 1238.42 1873.34 1237.25C1875.27 1235.14 1878.57 1233.97 1881.59 1234.44C1883.25 1234.67 1884.62 1235.38 1886.27 1235.61C1889.85 1236.08 1893.7 1234.21 1896.73 1235.61C1898.1 1236.31 1899.2 1237.48 1900.03 1238.66C1902.23 1241.7 1904.98 1244.74 1903.05 1248.26C1901.95 1250.13 1900.03 1251.77 1897.55 1252.47C1895.08 1252.94 1892.05 1252.47 1889.57 1252.24C1887.37 1252 1885.17 1251.77 1882.97 1251.77C1880.77 1251.77 1879.12 1252.7 1876.64 1251.53Z" fill="#844F6E"/>
</g>
<g id="Person 1">
<path id="Vector_89" d="M1582.81 1323.65C1582.81 1329.97 1583.08 1333.95 1583.08 1333.95C1583.08 1333.95 1593.54 1334.42 1593.26 1342.85C1592.99 1351.28 1633.98 1352.92 1633.98 1352.92C1633.98 1352.92 1633.98 1352.92 1633.98 1352.69C1633.98 1352.69 1633.98 1351.98 1633.98 1350.81C1637.83 1351.28 1641.96 1351.75 1644.44 1351.52C1644.16 1352.22 1644.16 1352.92 1643.89 1353.39C1643.61 1353.62 1640.03 1356.9 1640.03 1360.18C1640.03 1361.82 1640.86 1363.69 1643.89 1365.1C1652.69 1369.31 1679.65 1366.97 1679.65 1366.97C1683.78 1364.63 1685.15 1362.76 1685.15 1361.12C1685.15 1358.77 1682.4 1357.14 1679.93 1355.96C1678 1355.03 1675.8 1355.03 1673.6 1355.5C1670.57 1355.96 1667.82 1356.2 1664.8 1355.96C1664.8 1355.5 1665.07 1355.03 1665.35 1354.56C1668.1 1355.26 1670.02 1355.73 1670.02 1355.73C1670.02 1355.73 1684.33 1349.17 1678.55 1338.64C1677.73 1337.23 1676.08 1336.06 1674.42 1335.13C1679.1 1328.33 1683.5 1320.37 1682.95 1314.99C1682.13 1306.09 1661.22 1307.96 1653.52 1309.13L1638.38 1296.49C1638.38 1287.12 1638.66 1276.59 1637.83 1274.25C1635.91 1270.27 1636.73 1270.73 1635.36 1269.09C1634.81 1268.16 1632.88 1266.75 1632.33 1266.75C1632.06 1264.88 1632.06 1263.01 1632.33 1261.13C1640.03 1259.03 1645.26 1252.94 1645.26 1246.15C1645.26 1243.57 1644.44 1241.23 1643.34 1238.89H1643.61L1641.68 1230.69C1641.41 1230.23 1641.68 1229.99 1641.68 1229.52C1641.96 1229.29 1642.24 1229.29 1642.51 1229.06C1643.06 1228.59 1643.34 1227.65 1642.79 1227.18C1642.51 1226.95 1642.24 1226.71 1641.96 1226.48C1640.31 1224.84 1636.73 1225.54 1634.53 1225.31C1631.51 1225.07 1628.48 1224.61 1625.73 1225.78C1625.18 1226.01 1624.63 1226.48 1623.8 1226.71C1622.98 1226.95 1621.88 1226.95 1621.05 1226.95C1619.4 1226.95 1617.75 1227.18 1616.1 1227.42C1613.9 1226.71 1611.42 1227.42 1609.5 1228.35C1604.82 1230.69 1602.34 1235.14 1602.62 1239.59C1602.89 1241 1603.17 1242.4 1603.44 1243.81L1607.02 1255.98C1607.29 1256.92 1607.84 1257.86 1608.39 1258.79C1608.67 1259.03 1608.67 1259.03 1608.94 1259.26C1609.77 1259.96 1610.87 1260.43 1611.97 1260.2C1612.25 1260.2 1612.25 1260.2 1612.25 1259.96C1612.25 1261.13 1611.7 1262.54 1611.42 1263.71C1607.29 1264.65 1601.24 1268.39 1593.81 1278.93C1584.46 1292.04 1582.81 1311.94 1582.81 1323.65Z" fill="url(#paint14_linear)"/>
<path id="Vector_90" d="M1660.12 1316.16H1619.12V1340.98H1660.12V1316.16Z" fill="#5F5D7E"/>
<path id="Vector_91" d="M1649.94 1310.77C1649.94 1310.77 1680.48 1305.39 1681.3 1316.16C1682.13 1326.93 1663.42 1348.71 1663.42 1348.71L1646.36 1345.66L1651.31 1328.8C1651.31 1328.8 1631.78 1325.06 1630.68 1324.82C1629.3 1324.82 1649.94 1310.77 1649.94 1310.77Z" fill="#5F5D7E"/>
<path id="Vector_92" opacity="0.1" d="M1649.94 1310.77C1649.94 1310.77 1680.48 1305.39 1681.3 1316.16C1682.13 1326.93 1663.42 1348.71 1663.42 1348.71L1646.36 1345.66L1651.31 1328.8C1651.31 1328.8 1631.78 1325.06 1630.68 1324.82C1629.3 1324.82 1649.94 1310.77 1649.94 1310.77Z" fill="black"/>
<path id="Vector_93" d="M1665.9 1351.75C1665.9 1351.75 1662.87 1356.43 1663.97 1358.31C1664.8 1360.18 1643.34 1355.5 1643.34 1355.5C1643.34 1355.5 1644.99 1349.88 1644.71 1349.17C1644.44 1348.71 1665.9 1351.75 1665.9 1351.75Z" fill="#5F5D7E"/>
<path id="Vector_94" d="M1646.91 1319.67L1649.11 1321.31L1650.49 1322.48C1650.49 1322.48 1657.37 1332.08 1666.45 1326.23C1675.53 1320.37 1659.57 1315.92 1656.27 1315.69C1654.89 1315.46 1653.79 1314.75 1653.24 1313.82C1652.69 1313.12 1652.41 1312.41 1652.14 1311.48L1646.91 1319.67Z" fill="#FDC2CC"/>
<path id="Vector_95" opacity="0.05" d="M1646.91 1319.67L1649.11 1321.31L1650.49 1322.48C1650.49 1322.48 1657.37 1332.08 1666.45 1326.23C1675.53 1320.37 1659.57 1315.92 1656.27 1315.69C1654.89 1315.46 1653.79 1314.75 1653.24 1313.82C1652.69 1313.12 1652.41 1312.41 1652.14 1311.48L1646.91 1319.67Z" fill="black"/>
<path id="Vector_96" opacity="0.1" d="M1665.9 1351.75C1665.9 1351.75 1662.87 1356.43 1663.97 1358.31C1664.8 1360.18 1643.34 1355.5 1643.34 1355.5C1643.34 1355.5 1644.99 1349.88 1644.71 1349.17C1644.44 1348.71 1665.9 1351.75 1665.9 1351.75Z" fill="black"/>
<path id="Vector_97" opacity="0.1" d="M1646.91 1319.67L1649.11 1321.31C1649.11 1318.03 1651.59 1315.22 1653.24 1313.58C1652.69 1312.88 1652.41 1312.18 1652.14 1311.24L1646.91 1319.67Z" fill="black"/>
<path id="Vector_98" d="M1634.26 1294.85L1654.34 1311.94C1654.34 1311.94 1647.46 1317.1 1648.84 1322.48L1634.26 1308.67V1294.85Z" fill="#C4C8E2"/>
<path id="Vector_99" opacity="0.1" d="M1634.53 1294.85V1308.67L1636.73 1310.77L1643.61 1317.33L1648.84 1322.48C1647.46 1317.1 1654.34 1311.94 1654.34 1311.94L1634.53 1294.85Z" fill="black"/>
<path id="Vector_100" d="M1634.26 1270.27C1634.26 1270.27 1634.26 1275.42 1629.03 1274.01C1623.8 1272.61 1627.93 1332.55 1627.93 1332.55C1627.93 1332.55 1643.06 1322.95 1640.03 1315.92C1637.01 1308.9 1636.46 1303.75 1636.73 1296.96C1637.01 1290.17 1634.26 1270.27 1634.26 1270.27Z" fill="#D39999"/>
<path id="Vector_101" d="M1633.98 1256.45C1633.98 1256.45 1629.58 1266.52 1633.98 1274.25C1638.38 1281.97 1608.12 1270.03 1608.12 1270.03C1608.12 1270.03 1614.72 1267.22 1612.52 1254.34L1633.98 1256.45Z" fill="#FDC2CC"/>
<path id="Vector_102" opacity="0.1" d="M1636.46 1302.58C1636.18 1305.39 1636.18 1307.96 1636.46 1310.77L1643.34 1317.33C1642.24 1315.46 1641.13 1313.82 1640.03 1311.94C1638.93 1310.54 1638.66 1304.92 1638.66 1298.36L1636.18 1296.26C1636.46 1299.77 1636.46 1302.58 1636.46 1302.58Z" fill="black"/>
<path id="Vector_103" d="M1632.06 1269.09C1631.78 1267.69 1634.26 1269.8 1635.08 1270.97C1636.18 1272.61 1635.63 1272.14 1637.28 1276.12C1638.93 1280.1 1636.73 1308.67 1639.21 1312.18C1640.86 1314.52 1642.51 1317.1 1643.89 1319.91L1639.21 1318.5C1639.21 1318.5 1637.56 1314.05 1636.18 1313.12C1635.08 1312.18 1635.63 1303.05 1635.63 1303.05C1635.63 1303.05 1634.81 1287.36 1633.98 1283.85C1633.43 1280.57 1632.88 1271.67 1632.06 1269.09Z" fill="#C4C8E2"/>
<path id="Vector_104" opacity="0.1" d="M1632.06 1269.09C1631.78 1267.69 1634.26 1269.8 1635.08 1270.97C1636.18 1272.61 1635.63 1272.14 1637.28 1276.12C1638.93 1280.1 1636.73 1308.67 1639.21 1312.18C1640.86 1314.52 1642.51 1317.1 1643.89 1319.91L1639.21 1318.5C1639.21 1318.5 1637.56 1314.05 1636.18 1313.12C1635.08 1312.18 1635.63 1303.05 1635.63 1303.05C1635.63 1303.05 1634.81 1287.36 1633.98 1283.85C1633.43 1280.57 1632.88 1271.67 1632.06 1269.09Z" fill="black"/>
<path id="Vector_105" d="M1625.18 1330.44C1625.18 1330.44 1671.12 1329.04 1676.9 1339.34C1682.68 1349.64 1668.65 1356.2 1668.65 1356.2C1668.65 1356.2 1649.11 1351.05 1644.99 1351.75C1640.58 1352.45 1625.18 1349.88 1625.18 1349.88V1330.44V1330.44Z" fill="#5F5D7E"/>
<path id="Vector_106" d="M1650.76 1324.12C1650.76 1324.12 1661.22 1319.2 1667 1322.48C1672.77 1325.76 1672.22 1334.42 1663.97 1334.66C1655.72 1334.89 1651.59 1330.68 1651.59 1330.68L1650.76 1324.12Z" fill="#FDC2CC"/>
<path id="Vector_107" d="M1618.02 1265.58C1618.02 1265.58 1608.67 1260.2 1595.19 1280.1C1581.43 1300 1585.01 1334.42 1585.01 1334.42C1585.01 1334.42 1595.19 1334.89 1594.91 1343.09C1594.64 1351.28 1634.26 1352.92 1634.26 1352.92C1634.26 1352.92 1633.71 1271.9 1629.58 1269.8C1625.45 1267.69 1618.02 1265.58 1618.02 1265.58Z" fill="#C4C8E2"/>
<path id="Vector_108" opacity="0.1" d="M1618.02 1280.33C1621.33 1282.44 1623.25 1285.72 1623.25 1289.23C1623.25 1296.72 1623.53 1312.65 1624.35 1315.46C1625.45 1319.44 1642.79 1324.59 1651.86 1324.35C1651.86 1324.35 1656.27 1331.38 1651.04 1332.78C1645.81 1334.19 1613.9 1332.78 1613.9 1332.78C1613.9 1332.78 1601.52 1320.61 1601.24 1310.07C1600.97 1299.53 1599.32 1287.59 1601.24 1285.49C1602.89 1283.61 1609.77 1275.42 1618.02 1280.33Z" fill="black"/>
<path id="Vector_109" d="M1618.57 1279.4C1621.88 1281.5 1623.8 1284.78 1623.8 1288.3C1623.8 1295.79 1624.08 1311.71 1624.9 1314.52C1626 1318.5 1643.34 1323.65 1652.41 1323.42C1652.41 1323.42 1656.82 1330.44 1651.59 1331.85C1646.36 1333.25 1614.45 1331.85 1614.45 1331.85C1614.45 1331.85 1602.07 1319.67 1601.79 1309.13C1601.52 1298.6 1599.87 1286.66 1601.79 1284.55C1603.44 1282.68 1610.32 1274.48 1618.57 1279.4Z" fill="#C4C8E2"/>
<path id="Vector_110" d="M1678.55 1356.43C1682.68 1358.07 1687.63 1361.82 1678.28 1367.2C1678.28 1367.2 1652.14 1369.78 1643.89 1365.33C1635.36 1360.88 1643.89 1353.62 1643.89 1353.62C1643.89 1353.62 1663.14 1358.07 1672.5 1355.96C1674.42 1355.5 1676.63 1355.73 1678.55 1356.43Z" fill="#4C4C56"/>
<path id="Vector_111" opacity="0.1" d="M1678.55 1356.9C1682.68 1358.54 1687.63 1362.05 1678.28 1367.2C1678.28 1367.2 1652.14 1369.55 1643.89 1365.33C1635.36 1361.12 1643.89 1354.33 1643.89 1354.33C1643.89 1354.33 1663.14 1358.54 1672.5 1356.43C1674.42 1355.96 1676.63 1356.2 1678.55 1356.9Z" fill="black"/>
<path id="Vector_112" opacity="0.1" d="M1619.4 1297.9C1619.4 1297.9 1620.78 1313.35 1630.4 1316.86Z" fill="black"/>
<path id="Vector_113" opacity="0.1" d="M1633.71 1258.32C1632.88 1260.43 1632.33 1262.77 1632.06 1264.88C1630.13 1265.35 1627.65 1264.18 1625.45 1264.18C1620.23 1264.18 1618.57 1259.03 1615.27 1255.98C1615.27 1254.58 1612.52 1257.86 1612.25 1256.22L1633.71 1258.32Z" fill="black"/>
<path id="Vector_114" d="M1608.12 1248.26C1608.12 1249.66 1608.39 1250.83 1608.67 1252V1252.24C1611.15 1260.67 1621.33 1265.58 1631.23 1263.24C1641.13 1261.13 1646.91 1252.47 1644.16 1244.04C1641.68 1235.61 1631.51 1230.69 1621.6 1233.04C1613.62 1235.14 1608.12 1241.23 1608.12 1248.26Z" fill="#FDC2CC"/>
<path id="Vector_115" opacity="0.1" d="M1595.19 1280.33C1597.11 1277.52 1599.32 1274.71 1601.79 1272.37C1599.87 1274.48 1597.94 1276.82 1596.56 1279.16C1582.81 1299.07 1586.38 1333.49 1586.38 1333.49C1586.38 1333.49 1596.56 1333.95 1596.29 1342.15C1596.01 1349.41 1627.93 1351.52 1634.53 1351.98C1634.53 1352.92 1634.53 1353.39 1634.53 1353.39C1634.53 1353.39 1594.91 1351.75 1595.19 1343.55C1595.46 1335.36 1585.28 1334.89 1585.28 1334.89C1585.28 1334.89 1581.43 1300.47 1595.19 1280.33Z" fill="black"/>
<path id="Vector_116" opacity="0.1" d="M1610.6 1230.69C1612.52 1229.76 1615 1229.06 1616.92 1229.76C1618.57 1229.52 1620.22 1229.29 1621.6 1229.29C1622.43 1229.29 1623.25 1229.29 1624.08 1229.06C1624.63 1228.82 1625.18 1228.59 1626 1228.12C1628.75 1226.95 1631.78 1227.42 1634.53 1227.65C1636.73 1227.88 1640.86 1227.18 1642.24 1229.52C1642.79 1230.23 1642.51 1230.93 1641.96 1231.4C1641.68 1231.63 1641.41 1231.63 1641.13 1231.87C1640.86 1232.1 1640.86 1232.57 1641.13 1233.04L1643.06 1241.23C1641.41 1241.93 1639.21 1241.93 1637.28 1241.47C1636.73 1241.23 1636.18 1241 1635.91 1241C1634.53 1241.7 1632.88 1241.23 1631.23 1241.47C1630.13 1241.7 1629.3 1242.17 1628.75 1242.87C1626.83 1244.74 1625.45 1247.08 1624.9 1249.43C1624.63 1250.36 1624.35 1251.53 1623.53 1251.77C1623.25 1251.77 1622.7 1251.77 1622.43 1251.77C1620.5 1252 1619.67 1253.88 1618.57 1255.05C1617.2 1256.68 1614.45 1257.62 1614.17 1259.49C1614.17 1259.96 1614.17 1260.67 1613.9 1260.9C1613.62 1261.13 1613.35 1261.37 1613.07 1261.37C1611.97 1261.6 1610.6 1261.13 1610.05 1260.2C1609.5 1259.26 1608.94 1258.32 1608.67 1257.39L1605.09 1245.45C1604.54 1244.04 1604.27 1242.64 1604.27 1241.47C1603.44 1237.25 1605.92 1233.04 1610.6 1230.69Z" fill="black"/>
<path id="Vector_117" d="M1610.32 1230.46C1612.25 1229.52 1614.72 1228.82 1616.65 1229.52C1618.3 1229.29 1619.95 1229.06 1621.33 1229.06C1622.15 1229.06 1622.98 1229.06 1623.8 1228.82C1624.35 1228.59 1624.9 1228.35 1625.73 1227.88C1628.48 1226.71 1631.51 1227.18 1634.26 1227.42C1636.46 1227.65 1640.58 1226.95 1641.96 1229.29C1642.51 1229.99 1642.24 1230.69 1641.68 1231.16C1641.41 1231.4 1641.13 1231.4 1640.86 1231.63C1640.58 1231.86 1640.58 1232.33 1640.86 1232.8L1642.79 1241C1641.13 1241.7 1638.93 1241.7 1637.01 1241.23C1636.46 1241 1635.91 1240.76 1635.63 1240.76C1634.26 1241.47 1632.61 1241 1630.95 1241.23C1629.85 1241.47 1629.03 1241.93 1628.48 1242.64C1626.55 1244.51 1625.18 1246.85 1624.63 1249.19C1624.35 1250.13 1624.08 1251.3 1623.25 1251.53C1622.98 1251.53 1622.43 1251.53 1622.15 1251.53C1620.22 1251.77 1619.4 1253.64 1618.3 1254.81C1616.92 1256.45 1614.17 1257.39 1613.9 1259.26C1613.9 1259.73 1613.9 1260.43 1613.62 1260.67C1613.35 1260.9 1613.07 1261.13 1612.8 1261.13C1611.7 1261.37 1610.32 1260.9 1609.77 1259.96C1609.22 1259.03 1608.67 1258.09 1608.39 1257.15L1604.82 1245.21C1604.27 1243.81 1603.99 1242.4 1603.99 1241.23C1603.17 1237.02 1605.64 1232.8 1610.32 1230.46Z" fill="#865A61"/>
</g>
</g>
<defs>
<linearGradient id="paint0_linear" x1="1089.5" y1="0" x2="1089.5" y2="1067.73" gradientUnits="userSpaceOnUse">
<stop stop-color="#71CDE1"/>
<stop offset="0.9949" stop-color="#F4F3B4"/>
</linearGradient>
<radialGradient id="paint1_radial" cx="0" cy="0" r="1" gradientUnits="userSpaceOnUse" gradientTransform="translate(1966.41 214.727) scale(153.245 130.422)">
<stop offset="0.010256" stop-color="#F4F3B0"/>
<stop offset="1" stop-color="#F9ED32"/>
</radialGradient>
<linearGradient id="paint2_linear" x1="597.586" y1="259.673" x2="597.586" y2="615.879" gradientUnits="userSpaceOnUse">
<stop stop-color="white"/>
<stop offset="0.9949" stop-color="#F4F3B4"/>
</linearGradient>
<linearGradient id="paint3_linear" x1="1553.39" y1="272.796" x2="1553.39" y2="450.902" gradientUnits="userSpaceOnUse">
<stop stop-color="white"/>
<stop offset="0.9949" stop-color="#F4F3B4"/>
</linearGradient>
<linearGradient id="paint4_linear" x1="1223.63" y1="195.347" x2="1223.63" y2="350.246" gradientUnits="userSpaceOnUse">
<stop stop-color="white"/>
<stop offset="0.9949" stop-color="#F4F3B4"/>
</linearGradient>
<linearGradient id="paint5_linear" x1="683.592" y1="766.936" x2="683.592" y2="898.13" gradientUnits="userSpaceOnUse">
<stop stop-color="white"/>
<stop offset="0.9949" stop-color="#F4F3B4"/>
</linearGradient>
<linearGradient id="paint6_linear" x1="211.751" y1="702.217" x2="211.751" y2="833.411" gradientUnits="userSpaceOnUse">
<stop stop-color="white"/>
<stop offset="0.9949" stop-color="#F4F3B4"/>
</linearGradient>
<linearGradient id="paint7_linear" x1="1646.53" y1="676.554" x2="1646.53" y2="807.748" gradientUnits="userSpaceOnUse">
<stop stop-color="white"/>
<stop offset="0.9949" stop-color="#F4F3B4"/>
</linearGradient>
<linearGradient id="paint8_linear" x1="1466.38" y1="686.664" x2="1466.38" y2="864.759" gradientUnits="userSpaceOnUse">
<stop stop-color="white"/>
<stop offset="0.9949" stop-color="#F4F3B4"/>
</linearGradient>
<linearGradient id="paint9_linear" x1="1089.5" y1="674.353" x2="1089.5" y2="1143.36" gradientUnits="userSpaceOnUse">
<stop offset="0.0051082" stop-color="#97BF9D"/>
<stop offset="1" stop-color="#009EDD"/>
</linearGradient>
<linearGradient id="paint10_linear" x1="1089.64" y1="765.672" x2="1089.64" y2="1093.48" gradientUnits="userSpaceOnUse">
<stop stop-color="#BCDDA3"/>
<stop offset="1" stop-color="#6CB49E"/>
</linearGradient>
<linearGradient id="paint11_linear" x1="1089.5" y1="919.814" x2="1089.5" y2="1300.47" gradientUnits="userSpaceOnUse">
<stop stop-color="#FFF33B"/>
<stop offset="0.050352" stop-color="#E8E637"/>
<stop offset="0.1053" stop-color="#D0DD35"/>
<stop offset="0.1616" stop-color="#BED734"/>
<stop offset="0.2194" stop-color="#B4D335"/>
<stop offset="0.2809" stop-color="#B0D235"/>
<stop offset="1" stop-color="#5B8828"/>
</linearGradient>
<linearGradient id="paint12_linear" x1="1090.19" y1="1043.97" x2="1090.19" y2="1354.86" gradientUnits="userSpaceOnUse">
<stop stop-color="#FFF33B"/>
<stop offset="0.050352" stop-color="#E8E637"/>
<stop offset="0.1053" stop-color="#D0DD35"/>
<stop offset="0.1616" stop-color="#BED734"/>
<stop offset="0.2194" stop-color="#B4D335"/>
<stop offset="0.2809" stop-color="#B0D235"/>
<stop offset="1" stop-color="#5B8828"/>
</linearGradient>
<linearGradient id="paint13_linear" x1="1090.88" y1="1172.39" x2="1090.88" y2="1433.23" gradientUnits="userSpaceOnUse">
<stop stop-color="#FFF33B"/>
<stop offset="0.050352" stop-color="#E8E637"/>
<stop offset="0.1053" stop-color="#D0DD35"/>
<stop offset="0.1616" stop-color="#BED734"/>
<stop offset="0.2194" stop-color="#B4D335"/>
<stop offset="0.2809" stop-color="#B0D235"/>
<stop offset="1" stop-color="#5B8828"/>
</linearGradient>
<linearGradient id="paint14_linear" x1="1685.28" y1="1296.37" x2="1582.83" y2="1296.37" gradientUnits="userSpaceOnUse">
<stop stop-color="#808080" stop-opacity="0.25"/>
<stop offset="0.54" stop-color="#808080" stop-opacity="0.12"/>
<stop offset="1" stop-color="#808080" stop-opacity="0.1"/>
</linearGradient>
<clipPath id="clip0">
<rect width="2179" height="1433" fill="white"/>
</clipPath>
</defs>
</svg>
